<svg width="89" height="77" viewBox="0 0 89 77" fill="none" xmlns="http://www.w3.org/2000/svg">
<path d="M79 46C85 51.2 80 51.8732 76.5 51.5399L74.5 48.0399C75.3333 47.8732 76.7 47.4 77.5 47C78.3 46.6 78.8333 46.1667 79 46Z" fill="black" stroke="black"/>
<path d="M58 41C55.5 37 56.3333 34.3333 57 32.5C55.8746 31.2339 53.5 28 53 25C53 23.5 54.5 24.5 56.5 25L63 26.5C65.5 24.5 74.5 24 77.5 26L80 25L83 24L84.5 23.5C84.5 23.5 85.5 23.3218 85.4307 23.873C85.3069 24.8582 84.9618 26.5763 84 28.5C83.1522 30.1956 83.189 29.7932 83 30.2518C82.8545 30.6046 82.8713 30.8751 83 31.5C84.1666 37.1667 84.5 43.5 75 46.5L73 47C71 44.5 62 41.6667 58 41Z" fill="black"/>
<path d="M56.5 25L63 26.5C65.5 24.5 74.5 24 77.5 26L80 25L83 24L84.5 23.5C84.5 23.5 85.5 23.3218 85.4307 23.873C85.3069 24.8582 84.9618 26.5763 84 28.5C83.1522 30.1956 83.189 29.7932 83 30.2518C82.8545 30.6046 82.8713 30.8751 83 31.5C84.1666 37.1667 84.5 43.5 75 46.5L73 47C71 44.5 62 41.6667 58 41C55.5 37 56.3333 34.3333 57 32.5C55.8746 31.2339 53.5 28 53 25M56.5 25C54.5 24.5 53 23.5 53 25M56.5 25H53" stroke="black"/>
<path d="M14.5 29V0.999992L71.5 0.999992V24M9 51.5L1.5 62.5H62.5" stroke="black"/>
<path d="M10.5 52.5L5.5 60.5H61" stroke="black"/>
<path d="M16.5 27V2.99999L69.5 2.99999V22" stroke="black"/>
<path fill-rule="evenodd" clip-rule="evenodd" d="M38.1215 22C38.0543 21.8458 37.9911 21.6858 37.9318 21.5199C37.5341 20.4025 37.3352 19.053 37.3352 17.4716C37.3352 15.8996 37.5341 14.5573 37.9318 13.4446C38.3343 12.3272 38.9119 11.4749 39.6648 10.8878C40.4223 10.2959 41.3314 9.99999 42.392 9.99999C43.4527 9.99999 44.3594 10.2959 45.1122 10.8878C45.8698 11.4749 46.4474 12.3272 46.8452 13.4446C47.2476 14.5573 47.4489 15.8996 47.4489 17.4716C47.4489 19.053 47.25 20.4025 46.8523 21.5199C46.793 21.6858 46.7297 21.8458 46.6626 22L44.7701 22C44.8021 21.9506 44.8333 21.8994 44.8636 21.8466C45.4508 20.8239 45.7443 19.3655 45.7443 17.4716C45.7443 16.2121 45.6094 15.1397 45.3395 14.2543C45.0743 13.3688 44.6908 12.6941 44.1889 12.2301C43.6918 11.7661 43.0928 11.5341 42.392 11.5341C41.3409 11.5341 40.5194 12.0525 39.9276 13.0895C39.3357 14.1217 39.0398 15.5824 39.0398 17.4716C39.0398 18.7311 39.2102 19.8437 39.4375 20.6818C39.5707 21.1729 39.7697 21.6208 40.0116 22L38.1215 22ZM25 22.9602V21.5114L31.392 11.3977H31.8466L32.4432 11.3977H33.5227L33.5227 21.3977L35.5114 21.3977L35.3352 21.9432L33.5227 22.1215V22.4432L31.8466 22.9602V22.2865L25 22.9602ZM31.733 13.642H31.8466V21.3977L26.9034 21.3977L26.9034 21.2841L31.733 13.642ZM50.332 21.5114L50.332 22.9602L57.1786 22.9602L57.1786 25.9432L58.8548 25.9432L58.8548 22.9602H60.8434V21.3977L58.8548 21.3977L58.8548 11.3977H57.7752L57.1786 11.3977H56.7241L50.332 21.5114ZM57.1786 13.642L57.065 13.642L52.2354 21.2841L52.2354 21.3977H57.1786V13.642Z" fill="black"/>
<path d="M71.915 40.6209C72.162 40.1242 71.8121 40 71.6063 40H70.0626H69.4451H69.1364C68.8894 40 69.0335 40.414 69.1364 40.6209C69.3422 40.9314 69.8156 41.6145 70.0626 41.8628C70.3096 42.1112 70.783 41.9663 70.9888 41.8628C71.1947 41.6559 71.6681 41.1177 71.915 40.6209Z" fill="white"/>
<path d="M69.4451 40H70.0626M70.0626 40H71.6063C71.8121 40 72.162 40.1242 71.915 40.6209C71.6681 41.1177 71.1947 41.6559 70.9888 41.8628C70.783 41.9663 70.3096 42.1112 70.0626 41.8628C69.8156 41.6145 69.3422 40.9314 69.1364 40.6209C69.0335 40.414 68.8894 40 69.1364 40C69.3834 40 69.8568 40 70.0626 40Z" stroke="black"/>
<path d="M13.5 50C16.7 52 28 52.5 34 52.5C40.5 52.5 52.7331 52.9525 56 53.873C57.6667 54.2486 61.3 56.2 62.5 61C63.7 65.8 63 67.5 61 69.5L59 71C60 71 63 70.5 64.5 69C66.5 67 67.4492 64 67.2246 62C68.711 65.3326 70.5 70 65.5 76.373C69 74.4153 74.7296 68.4641 76 65.5C77.2093 62.6782 79.3937 53.0315 70.5 47.0406C68.3624 45.6007 65.5 44.5 62.5 43.5C62.0118 43.3373 58.5 42.5 56.5 42C56.3201 41.6898 56.153 41.3215 56 40.9118C55.1319 38.5882 54.7166 34.9341 55 33C54.8333 32.6667 54.2 31.5 53 29.5C51.8 27.5 51.1667 25.3333 51 24.5C48.8014 23.9639 46.3314 23.257 40.5 23.5C24.3894 24.1713 16.116 27.2826 12 35C7.99999 42.5 9.49998 47.5 13.5 50Z" fill="black"/>
<path d="M67.0878 61.7054C67.1347 61.8025 67.1803 61.9007 67.2246 62M67.2246 62C68.711 65.3325 70.5 70 65.5 76.373C69 74.4153 74.7296 68.4641 76 65.5C77.2093 62.6782 79.3937 53.0315 70.5 47.0406C68.3624 45.6007 65.5 44.5 62.5 43.5C62.0118 43.3373 58.5 42.5 56.5 42C56.3201 41.6898 56.153 41.3215 56 40.9118C55.1319 38.5882 54.7166 34.9341 55 33C54.8333 32.6667 54.2 31.5 53 29.5C51.8 27.5 51.1667 25.3333 51 24.5C48.8014 23.9639 46.3314 23.257 40.5 23.5C24.3894 24.1713 16.116 27.2826 12 35C7.99999 42.5 9.49998 47.5 13.5 50C16.7 52 28 52.5 34 52.5C40.5 52.5 52.7331 52.9525 56 53.873C57.6667 54.2486 61.3 56.2 62.5 61C63.7 65.8 63 67.5 61 69.5L59 71C60 71 63 70.5 64.5 69C66.5 67 67.4492 64 67.2246 62Z" stroke="black"/>
<path d="M57.5 41.5C55 41 46.391 41.0363 40.5 43C33 45.5 30 47 18.5 45.5M26 36.5C28.5 36.8333 33.2 38.8 32 44" stroke="white" stroke-width="0.5"/>
<path d="M28 57C30 57 39.1667 57 44 57" stroke="black" stroke-width="0.2"/>
<path d="M35.5 57L35 58.5M35 58.5H27L29 54H45.5L44.5 58.5H35Z" stroke="black" stroke-width="0.2"/>
<path d="M74.5 40.5C77.1667 39.1667 82.6 36.3562 85 37.1562C87.4 37.9562 88.3333 39.4895 88.5 40.1562" stroke="white" stroke-width="0.2"/>
<path d="M74.5 41.1562C75.6667 40.3229 78.9 39.1562 82.5 41.1562C86.1 43.1562 87.3333 43.9895 87.5 44.1562" stroke="white" stroke-width="0.2"/>
<path d="M75 41.5C75.8333 41 78.3 41.3562 81.5 44.1562" stroke="white" stroke-width="0.2"/>
<path d="M66.5 40.5C63.8333 39.1667 57.9 36.3562 55.5 37.1562C53.1 37.9562 52.1667 39.4895 52 40.1562" stroke="white" stroke-width="0.2"/>
<path d="M66 41.1562C64.8333 40.3229 61.6 39.1562 58 41.1562C54.4 43.1562 53.1667 43.9895 53 44.1562" stroke="white" stroke-width="0.2"/>
<path d="M66.5 42C65.6667 41.5 62.2 41.3562 59 44.1562" stroke="white" stroke-width="0.2"/>
</svg>
